<?xml version="1.0" standalone="no"?>
<!DOCTYPE svg PUBLIC "-//W3C//DTD SVG 20010904//EN"
 "http://www.w3.org/TR/2001/REC-SVG-20010904/DTD/svg10.dtd">
<svg version="1.0" xmlns="http://www.w3.org/2000/svg"
 width="980.000000pt" height="980.000000pt" viewBox="0 0 980.000000 980.000000"
 preserveAspectRatio="xMidYMid meet">

<g transform="translate(0.000000,980.000000) scale(0.100000,-0.100000)"
fill="#000000" stroke="none">
<path d="M2503 9793 c1335 -2 3519 -2 4855 0 1335 1 242 2 -2428 2 -2670 0
-3763 -1 -2427 -2z"/>
<path d="M2 9760 c0 -14 2 -19 5 -12 2 6 2 18 0 25 -3 6 -5 1 -5 -13z"/>
<path d="M5 4875 c0 -2673 1 -3765 2 -2427 2 1339 2 3526 0 4860 -1 1335 -2
240 -2 -2433z"/>
<path d="M4780 7124 c-19 -2 -215 -13 -435 -25 -220 -12 -406 -26 -412 -32 -7
-5 -13 -25 -13 -43 0 -19 -4 -34 -9 -34 -21 0 -70 -53 -92 -97 -32 -66 -32
-210 0 -298 28 -78 102 -186 163 -237 41 -35 48 -46 48 -78 0 -113 89 -326
184 -441 l54 -64 -15 -150 -15 -150 267 -700 c146 -385 296 -780 333 -877 37
-98 69 -178 72 -178 3 0 79 195 169 433 90 237 207 547 261 687 54 140 130
341 170 445 l73 190 -15 150 -14 150 59 75 c95 118 177 317 177 426 0 26 9 42
46 76 101 94 164 204 185 324 22 128 -10 243 -82 293 -30 21 -38 33 -39 57 0
17 -6 36 -12 41 -7 6 -222 22 -478 37 -427 24 -532 28 -630 20z m986 -225 l-6
-72 24 17 c36 23 73 20 87 -6 18 -34 16 -136 -5 -195 -23 -68 -92 -162 -149
-203 -53 -38 -64 -61 -70 -155 -6 -84 -49 -207 -99 -285 -66 -102 -176 -201
-336 -303 -96 -60 -147 -70 -336 -65 -171 4 -187 9 -313 95 -113 76 -201 153
-250 218 -82 108 -143 263 -143 365 0 70 -9 87 -61 125 -61 44 -132 138 -155
208 -21 60 -23 161 -5 195 10 19 19 23 44 20 18 -3 40 -9 51 -13 17 -8 18 -5
12 41 -4 27 -9 57 -12 67 -5 16 41 17 862 17 l867 0 -7 -71z m-1269 -1298
c141 -94 176 -104 384 -109 110 -2 197 0 231 7 65 14 149 56 236 118 35 25 66
43 69 40 8 -9 22 -143 23 -217 0 -98 -20 -122 -145 -171 -258 -101 -633 -87
-844 31 -65 37 -75 66 -67 191 6 102 15 169 22 169 1 0 42 -26 91 -59z"/>
<path d="M3131 4994 c-113 -53 -232 -114 -265 -137 -125 -84 -226 -213 -281
-357 -13 -36 -88 -272 -165 -525 -78 -253 -148 -479 -156 -503 -18 -55 -18
-68 5 -119 12 -26 32 -48 53 -59 19 -10 154 -37 328 -65 265 -43 296 -46 305
-32 6 9 28 38 50 66 84 105 116 152 164 245 93 183 163 434 193 697 17 151 16
528 -2 710 -8 83 -14 156 -13 163 0 6 -2 12 -6 12 -3 -1 -98 -44 -210 -96z"/>
<path d="M6476 5062 c-33 -171 -40 -683 -12 -897 44 -340 149 -639 288 -818
29 -38 69 -90 88 -116 l35 -47 293 47 c325 53 339 58 367 132 12 32 14 52 7
82 -25 105 -304 1057 -323 1100 -53 121 -156 241 -273 319 -46 30 -271 140
-423 206 l-42 19 -5 -27z"/>
</g>
</svg>
